# xmcd CD database file
#
# Track frame offsets:
#	150
#	15370
#	28149
#	40433
#	54536
#	64728
#	79784
#	98171
#	112142
#	124764
#	142044
#	155202
#	167839
#	182092
#	194866
#	207270
#	219617
#	235603
#
# Disc length: 3290 seconds
#
# Revision: 1
# Processed by: cddbd v1.5.2PL0 Copyright (c) Steve Scherf et al.
# Submitted via: CDex 1.70beta2
#
DISCID=0e0cd812
DTITLE=Orchester Ambros Seelos - Tanz Gala 2007
DYEAR=2006
DGENRE=
TTITLE0=Mack The Knife
TTITLE1=Con Tu Amor
TTITLE2=Mexican Hat Dance
TTITLE3=Holiday In Spain
TTITLE4=Vamos Amigos
TTITLE5=Mambo King
TTITLE6=Born To Be Alive
TTITLE7=Dont Keep Me Waiting
TTITLE8=Top Of The World
TTITLE9=Any Dream Will Do
TTITLE10=Alexanders Regtime Band
TTITLE11=Moonflight
TTITLE12=La Cumparsita
TTITLE13=Faithfully
TTITLE14=Mabusso
TTITLE15=Hit The Road Jack
TTITLE16=Hot Stuff
TTITLE17=Little Big Horn
EXTD=YEAR: 2006
EXTT0=
EXTT1=
EXTT2=
EXTT3=
EXTT4=
EXTT5=
EXTT6=
EXTT7=
EXTT8=
EXTT9=
EXTT10=
EXTT11=
EXTT12=
EXTT13=
EXTT14=
EXTT15=
EXTT16=
EXTT17=
PLAYORDER=
